<svg width="168" height="168" viewBox="0 0 168 168" fill="none" xmlns="http://www.w3.org/2000/svg">
<g clip-path="url(#clip0_76_105)">
<path d="M146.219 164.324L139.695 59.9385C139.628 58.8692 139.04 57.9007 138.123 57.3478L133.073 54.3053V34.0453C133.073 32.2436 131.613 30.7832 129.811 30.7832H38.6807C36.8791 30.7832 35.4186 32.2436 35.4186 34.0453V55.1671L31.9824 57.4101C31.1356 57.9627 30.5931 58.8771 30.5135 59.885L22.2764 164.271C22.205 165.178 22.5152 166.074 23.1327 166.742C23.7502 167.41 24.6186 167.79 25.5284 167.79H142.963C143.864 167.79 144.724 167.418 145.34 166.761C145.957 166.105 146.275 165.223 146.219 164.324ZM126.549 50.3742L119.841 46.3321L126.549 40.8914V50.3742ZM124.705 56.8797H117.437V52.5007L124.705 56.8797ZM120.611 37.3073L112.12 44.1932C111.356 44.8127 110.913 45.7433 110.913 46.7269V56.8797H57.5785V46.7269C57.5785 45.7437 57.1348 44.8127 56.3712 44.1932L47.881 37.3073H120.611ZM51.0544 56.8797H44.7305L51.0544 52.7519V56.8797ZM41.9428 40.8914L48.7859 46.4418L41.9428 50.9088V40.8914ZM29.0579 161.266L29.573 154.741H45.7574C47.5591 154.741 49.0195 153.281 49.0195 151.479C49.0195 149.678 47.5591 148.217 45.7574 148.217H30.0878L36.7802 63.4038H133.374L139.491 161.266H29.0579Z" fill="#878690"/>
<path d="M84.2457 14.7988C86.0473 14.7988 87.5078 13.3384 87.5078 11.5368V4.03403C87.5078 2.2324 86.047 0.771973 84.2457 0.771973C82.4444 0.771973 80.9836 2.2324 80.9836 4.03403V11.5368C80.9836 13.3384 82.4441 14.7988 84.2457 14.7988Z" fill="#878690"/>
<path d="M64.3336 17.7465C64.9377 18.7929 66.0341 19.3782 67.1615 19.3782C67.7147 19.3782 68.2758 19.2369 68.7896 18.9404C70.3498 18.0397 70.8845 16.0447 69.9835 14.4844L66.2321 7.98704C65.3315 6.42647 63.3361 5.89182 61.7761 6.79313C60.2159 7.69378 59.6812 9.68886 60.5822 11.2491L64.3336 17.7465Z" fill="#878690"/>
<path d="M99.702 18.9402C100.216 19.2371 100.777 19.378 101.33 19.378C102.457 19.378 103.554 18.7928 104.158 17.7463L107.909 11.2489C108.81 9.68869 108.276 7.69361 106.715 6.79296C105.155 5.89132 103.16 6.42663 102.259 7.98687L98.5081 14.4842C97.6074 16.0442 98.1418 18.0396 99.702 18.9402Z" fill="#878690"/>
<path d="M114.461 73.1907H101.413C99.6114 73.1907 98.1506 74.6511 98.1506 76.4527C98.1506 78.2544 99.6114 79.7148 101.413 79.7148H104.675V99.2872C104.675 110.079 95.8946 118.86 85.1021 118.86C74.3099 118.86 65.5297 110.079 65.5297 99.2872V79.7148H68.7918C70.5934 79.7148 72.0538 78.2544 72.0538 76.4527C72.0538 74.6511 70.5934 73.1907 68.7918 73.1907H55.7435C53.9419 73.1907 52.4814 74.6511 52.4814 76.4527C52.4814 78.2544 53.9419 79.7148 55.7435 79.7148H59.0056V99.2872C59.0056 113.677 70.7125 125.384 85.1021 125.384C99.4917 125.384 111.199 113.677 111.199 99.2872V79.7148H114.461C116.262 79.7148 117.723 78.2544 117.723 76.4527C117.723 74.6511 116.262 73.1907 114.461 73.1907Z" fill="#878690"/>
<path d="M60.4354 148.217C58.6338 148.217 57.1733 149.677 57.1733 151.479C57.1733 153.28 58.6338 154.741 60.4354 154.741H60.4377C62.2393 154.741 63.6988 153.28 63.6988 151.479C63.6988 149.677 62.237 148.217 60.4354 148.217Z" fill="#878690"/>
</g>
<defs>
<clipPath id="clip0_76_105">
<rect width="167.018" height="167.018" fill="white" transform="translate(0.736816 0.771973)"/>
</clipPath>
</defs>
</svg>
